<svg width="35" height="35" viewBox="0 0 28 28" fill="none" xmlns="http://www.w3.org/2000/svg">
<path d="M5.87012 18.7871H7.02148C7.28516 18.7871 7.39062 18.7344 7.58398 18.585L8.17285 18.1367C8.49805 18.4619 8.98145 18.5322 9.46484 18.3213L12.374 17.1084C12.5938 17.0205 12.708 16.9326 12.8486 16.792L21.3389 8.36328C22.1826 7.51953 22.1826 6.50879 21.3301 5.64746L19.4229 3.73145C18.5703 2.87891 17.5596 2.87012 16.7158 3.71387L8.22559 12.1338C8.07617 12.2832 7.99707 12.3887 7.90039 12.6172L6.66992 15.5176C6.46777 15.9834 6.52051 16.4404 6.8457 16.8008L5.58008 18.1104C5.30762 18.4004 5.43945 18.7871 5.87012 18.7871ZM17.6914 4.87402C17.9199 4.6543 18.1924 4.64551 18.4033 4.86523L20.1963 6.66699C20.416 6.88672 20.4072 7.15039 20.1699 7.37891L19.5986 7.9502L17.1113 5.4541L17.6914 4.87402ZM9.78125 12.7402L16.1621 6.40332L18.6406 8.89941L12.2686 15.2363L9.78125 12.7402ZM9.28906 16.7656C9.12207 16.8271 9.00781 16.8271 8.8584 16.6777L8.30469 16.1328C8.16406 15.9922 8.16406 15.8604 8.22559 15.7109L9.0166 13.874L11.126 16.001L9.28906 16.7656ZM5.57129 21.9072H22.4375C22.8594 21.9072 23.2021 21.5469 23.2021 21.125C23.2021 20.7031 22.8594 20.3516 22.4375 20.3516H5.57129C5.14062 20.3516 4.79785 20.7031 4.79785 21.125C4.79785 21.5469 5.14941 21.9072 5.57129 21.9072Z" fill="#8561FF"/>
</svg>

